<?xml version="1.0" encoding="UTF-8"?>
<svg xmlns="http://www.w3.org/2000/svg" viewBox="0 0 120 120" width="120" height="120">
<circle cx="60" cy="60" r="56" fill="#FFF8E1" stroke="#F57F17" stroke-width="3"/>

<path d="M40 30 Q42 24 60 24 Q78 24 80 30 L88 62 Q90 66 84 66 L36 66 Q30 66 32 62Z" fill="#FDD835"/>
<path d="M45 28 Q48 26 60 26 Q68 26 72 28" fill="none" stroke="#FFF176" stroke-width="1.5"/>
<path d="M44 32 L50 60" fill="none" stroke="#FBC02D" stroke-width="0.8" opacity="0.4"/>
<path d="M76 32 L70 60" fill="none" stroke="#FBC02D" stroke-width="0.8" opacity="0.4"/>
<rect x="54" y="66" width="12" height="6" rx="1" fill="#8D6E63"/>
<rect x="50" y="72" width="20" height="4" rx="2" fill="#A1887F"/>
<path d="M56 66 L56 72" fill="none" stroke="#795548" stroke-width="0.5"/>
<path d="M64" y1="66" x2="64" y2="72" fill="none" stroke="#795548" stroke-width="0.5"/>
<path d="M52 42 Q60 38 68 42" fill="none" stroke="#FFF9C4" stroke-width="2" opacity="0.5"/>
</svg>
