<?xml version="1.0" encoding="UTF-8"?>
<svg xmlns="http://www.w3.org/2000/svg" viewBox="0 0 120 120" width="120" height="120">
<circle cx="60" cy="60" r="56" fill="#EFEBE9" stroke="#5D4037" stroke-width="3"/>

<!-- Body - small and round -->
<ellipse cx="60" cy="72" rx="20" ry="16" fill="#D7CCC8"/>
<!-- Head - big -->
<circle cx="60" cy="46" r="20" fill="#BCAAA4"/>
<!-- Floppy ears -->
<path d="M40 42 Q28 36 24 48 Q24 58 34 56 Q38 54 42 48Z" fill="#8D6E63"/>
<path d="M80 42 Q92 36 96 48 Q96 58 86 56 Q82 54 78 48Z" fill="#8D6E63"/>
<!-- Big eyes -->
<circle cx="50" cy="44" r="6" fill="black"/>
<circle cx="70" cy="44" r="6" fill="black"/>
<circle cx="48" cy="42" r="2.5" fill="white"/>
<circle cx="68" cy="42" r="2.5" fill="white"/>
<!-- Nose -->
<ellipse cx="60" cy="52" rx="5" ry="3.5" fill="#3E2723"/>
<ellipse cx="59" cy="51" rx="1.5" ry="1" fill="#5D4037" opacity="0.4"/>
<!-- Mouth -->
<path d="M60 55 Q56 60 52 58" fill="none" stroke="#5D4037" stroke-width="1" stroke-linecap="round"/>
<path d="M60 55 Q64 60 68 58" fill="none" stroke="#5D4037" stroke-width="1" stroke-linecap="round"/>
<!-- Tongue -->
<path d="M58 56 Q60 62 62 56" fill="#E91E63"/>
<!-- Paws -->
<ellipse cx="44" cy="86" rx="7" ry="4" fill="#BCAAA4"/>
<ellipse cx="76" cy="86" rx="7" ry="4" fill="#BCAAA4"/>
<!-- Tail wagging -->
<path d="M80 70 Q88 64 92 58 Q94 56 92 60" fill="none" stroke="#D7CCC8" stroke-width="5" stroke-linecap="round"/>
<!-- Spot on body -->
<ellipse cx="50" cy="68" rx="6" ry="4" fill="#8D6E63" opacity="0.4"/>
</svg>
